<svg id="圖層_1" data-name="圖層 1" xmlns="http://www.w3.org/2000/svg" xmlns:xlink="http://www.w3.org/1999/xlink" viewBox="0 0 615 828.14"><defs><style>.cls-1{fill:none;}.cls-2{clip-path:url(#clip-path);}.cls-3{fill:#040000;}.cls-4,.cls-5{fill:#231815;}.cls-5{stroke:#040000;stroke-miterlimit:10;stroke-width:0.75px;}</style><clipPath id="clip-path"><rect class="cls-1" width="615" height="828.14"/></clipPath></defs><title>W&amp;amp;H</title><g class="cls-2"><path class="cls-3" d="M293.55,53.73c22.13,9.66,38.08,29.72,46.66,51.89a158.4,158.4,0,0,1,9.41,41.5,229.49,229.49,0,0,1,.7,42.34,89.09,89.09,0,0,1-3.82,19.81c-2.15,6.64-5.69,12.37-9.11,18.4a62.84,62.84,0,0,0-7,20.15,222,222,0,0,0-2.82,22.39,238.92,238.92,0,0,0,1,45.06c.64,5.62.82,11.68-4.07,15.48-3.71,2.89-8.77,3.77-13.34,3.88-5.23.13-11.37-.41-15.91-3.21a8,8,0,0,1-4-5.58c-.27-1.73,0-3.86,1.51-5,1.79-1.36,4.16-.57,5.79.63a9.85,9.85,0,0,1,3.73,6.55c.57,3.45.08,7-.11,10.49a42.5,42.5,0,0,0,.71,10.62,39.51,39.51,0,0,0,3.51,10c1.44,2.87,5.76.34,4.32-2.53a34.15,34.15,0,0,1-3.36-10.85,59.45,59.45,0,0,1,.07-11.16c.37-6.78-.61-13.86-6.86-17.75-5.18-3.22-12-1.48-13.92,4.61s1.66,12,6.87,14.76,11.78,3.58,17.63,3.43c5.43-.13,11.31-1.23,15.79-4.5,5.36-3.91,7.31-9.87,6.94-16.36-.22-3.89-.83-7.75-1.17-11.63s-.58-7.93-.72-11.9a212.42,212.42,0,0,1,3.49-47.76,62.64,62.64,0,0,1,3.1-11.14,70.74,70.74,0,0,1,5.3-10,77.1,77.1,0,0,0,8.56-19.84c3.75-14.32,3.71-29.46,3.14-44.16-.6-15.32-2.37-30.72-6.49-45.52-7-25.31-21.74-49.51-44.77-63.16a76.83,76.83,0,0,0-8.33-4.26,2.58,2.58,0,0,0-3.42.9,2.51,2.51,0,0,0,.9,3.42Z"/><path class="cls-3" d="M288.23,400.23c5.1-14.63.49-36-17.08-39.17-4-.72-9.95-1.23-13,2.06-2.83,3-1.09,7.25,1.16,10,7.41,9.17,20.5,6.76,30.37,3.92,9.19-2.64,21-6.95,21.23-18.31.07-3.22-4.93-3.22-5,0a10.11,10.11,0,0,1-4.58,8,33.23,33.23,0,0,1-9.75,4.49c-4.69,1.47-9.57,3-14.49,3.35a21.44,21.44,0,0,1-7.81-.7,13.61,13.61,0,0,1-2.6-1.05c-.37-.2-.73-.43-1.08-.66l-.42-.3c-.38-.28.09.1-.3-.24a10.24,10.24,0,0,1-2.65-3c-.09-.16-.43-.88-.35-.69s-.15-.52-.19-.67c-.12-.44,0,0,0,.09,0-.12,0-.24,0-.37s.06-.62,0-.2.06-.18.1-.26c-.22.46.17-.42-.06.11a1,1,0,0,1,.27-.28c-.44.24-.12.09,0,0a4.69,4.69,0,0,1,2.12-.68,20.76,20.76,0,0,1,5.18.06c6.6.94,11.42,5.19,13.93,11.12,2.9,6.85,2.74,14.89.26,22a2.5,2.5,0,1,0,4.82,1.33Z"/><path class="cls-3" d="M61.73,259.89c-1.12,11.4,1,23.78,7.17,33.56,5.38,8.48,15.29,15.95,25.54,10.89,5.45-2.69,9.4-8.69,7.78-14.85a2.51,2.51,0,0,0-4.91.66c.15,21.4,3.08,42.58,6.21,63.7,1.44,9.72,2.25,19.81,6.36,28.86,3.68,8.12,10.17,14.61,17.11,20,15.3,11.9,33.33,19,51,26.65a289.74,289.74,0,0,1,27.46,13.78c8.84,5,17.85,9.93,27.7,12.59A76.91,76.91,0,0,0,258.92,458c5.83-.44,13.27-1.7,16.17-7.53a12.67,12.67,0,0,0,1.27-5c.2-3.22-4.8-3.2-5,0a6.23,6.23,0,0,1-3.37,5.35,20.84,20.84,0,0,1-7.42,2.05,72,72,0,0,1-23.28-1.17c-9.47-2.13-18.06-6.48-26.49-11.18-8.62-4.81-17.19-9.55-26.21-13.59-17-7.59-34.57-14-50-24.67-6.88-4.77-13.6-10.4-18.07-17.58-4.88-7.82-6.15-17.22-7.4-26.19-2.79-20.18-6-40.25-6.7-60.64-.09-2.54-.14-5.09-.16-7.63l-4.91.67c1,4-2,7.43-5.33,9.12-3.52,1.8-7.46,1.21-10.76-.74-7.72-4.58-11.81-13.93-13.67-22.32a54.18,54.18,0,0,1-.91-17,2.51,2.51,0,0,0-2.5-2.5,2.56,2.56,0,0,0-2.5,2.5Z"/><path class="cls-3" d="M94.38,300.07A171.58,171.58,0,0,0,75.51,403.2c2.07,15.59,6.22,31.56,16.17,44.11,10.3,13,25.82,18.12,41.73,20.22s31.9,2.29,47.57,6.22a161.27,161.27,0,0,1,41.28,16.76,166.63,166.63,0,0,1,62.3,62.74c8.39,15,13.3,31.16,17.82,47.69,5.12,18.7,12.41,36.92,16.27,55.94,3.93,19.42,2.65,39.43-.78,58.82-1.7,9.56-3.79,19.07-6.26,28.46-2.09,7.94-4.81,16.18-10.48,22.34-4.76,5.17-12.37,8.69-19.48,7.28-7.39-1.47-11.08-8-12.25-14.94-1.32-7.87-.07-16.08.49-24q1.1-15.14,1.57-30.31c.63-20.24.16-40.44-.42-60.67-.57-19.76-.91-39.63,1.49-59.3,3.79-31.13,16.06-63.88,41.79-83.47,28.74-21.87,66.14-18.48,99.23-10.52,8.57,2.06,17.05,4.44,25.51,6.88,3.1.9,4.42-3.92,1.33-4.82-33.86-9.79-72.05-20.19-106.63-7.71-30.69,11.08-50.52,39.12-60,69.34-11.81,37.81-7.58,78.18-7,117.12q.42,31.05-1.76,62.06c-1,13.76-4.7,34,9.39,42.76,6.38,4,14.4,3.35,21,.41,7.38-3.27,12.64-9.66,16-16.85,3.78-8,5.7-16.79,7.68-25.39,2.25-9.82,4.17-19.72,5.45-29.72,2.55-19.93,1.75-39.68-3.47-59.12-2.6-9.65-5.89-19.09-8.88-28.62s-5.49-19.43-8.3-29.13c-4.57-15.78-10.79-30.85-19.6-44.76A170.37,170.37,0,0,0,254.73,508c-22.64-20.48-50.76-35.15-80.8-40.93-16.25-3.12-33-2.49-49.18-6.06-8.11-1.79-16.1-4.8-22.58-10.12a52.29,52.29,0,0,1-14.1-19.17C81,416.07,79,397.82,79,380.8a167.54,167.54,0,0,1,9-53.67A164.39,164.39,0,0,1,98.7,302.59c1.52-2.83-2.8-5.36-4.32-2.52Z"/><path class="cls-3" d="M332.05,308c5.95-1.26,12.08,2.32,15.14,7.33,3.57,5.84,2.85,13.41-.16,19.33a27.14,27.14,0,0,1-2.71,4.31,21.36,21.36,0,0,0-3.25,4.91c-1.67,4,.57,7.56,3.87,9.86a47.26,47.26,0,0,0,11,5.45c3.77,1.37,8.05,2.68,12.1,2.64s8-2.05,9.07-6.08-2-7.51-5.61-8.88c-7.07-2.68-14.57,2.24-17.41,8.63a27.36,27.36,0,0,0-2.24,11.07,12,12,0,0,0,4.82,9.7c2.49,2.06,5.05,3.87,6.82,6.64a24.77,24.77,0,0,1,3.27,8.6c1.32,6.54.85,13.36.49,20-.38,7.1-.28,15.08,5.91,19.81,5.7,4.38,13.85,4.09,20.68,4.36a127.86,127.86,0,0,0,21.61-.61c7.09-.93,14.08-2.72,20.34-6.26,6.46-3.64,11.09-9.07,15.76-14.7a57.7,57.7,0,0,1,7.47-7.84,28.24,28.24,0,0,1,8.25-4.61c6.27-2.32,12.94-3.22,19.42-4.8s12.85-4,17.71-8.65c5.44-5.22,8.36-12.66,9.49-20,1.36-8.91.56-17.9.63-26.87a185.43,185.43,0,0,1,2-26.42c.65-4.32,1.46-8.61,2.4-12.88.69-3.14-4.13-4.48-4.82-1.33a197.18,197.18,0,0,0-3.88,25.12,230.85,230.85,0,0,0-.62,25.5c.16,7.8.16,15.73-2.46,23.18A24.65,24.65,0,0,1,495,388.69c-5.47,2.76-11.7,3.78-17.64,5-6.23,1.32-12.61,2.84-18.09,6.22-6,3.67-10.08,9.3-14.53,14.55-4.32,5.08-9.19,9.27-15.39,11.89-12.35,5.23-26.46,4.71-39.57,4-5.83-.3-13.33-.48-16.29-6.49-1.36-2.77-1.43-6.1-1.36-9.12.08-3.22.34-6.44.44-9.66.19-6.42,0-13.14-2.1-19.26a26,26,0,0,0-4.66-8.28c-2.07-2.43-4.84-4-7.06-6.26s-2.07-5.56-1.59-8.6c.51-3.26,1.64-6.58,4-8.95a9.07,9.07,0,0,1,7.35-2.61c2,.28,5,2,3.23,4.18-2.11,2.57-6.66,1.2-9.33.53a48.44,48.44,0,0,1-10.91-4.13,28.23,28.23,0,0,1-4.41-2.66c-.93-.74-1.81-1.67-1.55-2.93.31-1.46,1.55-2.73,2.45-3.87a31.43,31.43,0,0,0,3-4.47c3.36-6.18,4.71-13.72,2.57-20.54a21.39,21.39,0,0,0-13.42-13.66,17.71,17.71,0,0,0-9.41-.5c-3.14.66-1.81,5.48,1.33,4.82Z"/><path class="cls-3" d="M512.27,242.49l8.4-15.54c2-3.71,4-8.15,7.76-10.44,3.23-2,7.1-1.55,10.33.22a16.77,16.77,0,0,1,7.67,9.25c1.69,4.7,2,9.71,2.08,14.67.1,5.33.15,10.7-.23,16a48.72,48.72,0,0,1-3.18,14.95A38.61,38.61,0,0,1,538,282.76c-6.87,7.7-15.78,13.17-24.52,18.46-2.75,1.66-.24,6,2.52,4.32,8.56-5.19,17.27-10.57,24.25-17.84a46.91,46.91,0,0,0,8.47-11.92,50.4,50.4,0,0,0,4.37-16.65,151.87,151.87,0,0,0,.46-17.2c-.06-5.45-.28-11.05-1.94-16.29a22.91,22.91,0,0,0-8.66-12.21,16.57,16.57,0,0,0-13.36-2.81c-5.55,1.44-9.05,6.27-11.7,11-3.38,6.06-6.61,12.22-9.91,18.33-1.53,2.83,2.78,5.36,4.31,2.52Z"/><path class="cls-3" d="M437.27,498.26c14.8,3,30.77,3.34,45.1-2A55.7,55.7,0,0,0,501.78,484a93.53,93.53,0,0,0,14.3-18.74c8.55-14.1,16.87-29.44,19.06-46,1.21-9.12.51-18.35.09-27.5L534,363.87c-.4-8.95-.93-17.86-3.37-26.53-2.28-8.08-5.61-15.84-7.58-24-.49-2-.88-4.09-1.17-6.16-.18-1.34-1.89-2.07-3.07-1.75a2.58,2.58,0,0,0-1.75,3.08c1.12,8.12,4.07,15.79,6.66,23.52A105.56,105.56,0,0,1,527,343.68a89.22,89.22,0,0,1,1.58,12.92c.55,9,.85,18,1.25,27s1.11,18,.93,27a72.86,72.86,0,0,1-4.7,24.06,153.88,153.88,0,0,1-10.63,21.83c-7.31,12.94-15.75,25.87-29.39,32.8-12.82,6.52-28.09,7.31-42.1,5.18q-2.7-.4-5.38-1a2.55,2.55,0,0,0-3.07,1.75,2.52,2.52,0,0,0,1.75,3.07Z"/><path class="cls-3" d="M447.87,418.9a83.42,83.42,0,0,1,20.31,40.84,79.45,79.45,0,0,1,1.33,12.87c.08,3.21,5.08,3.23,5,0a87.55,87.55,0,0,0-23.11-57.24c-2.18-2.38-5.71,1.16-3.53,3.53Z"/><path class="cls-3" d="M283.61,398.43c-1.67,3.56-4,6.74-6,10.07a40,40,0,0,0-4.75,10.91c-2,7.74-1.85,15.85-1.62,23.79.09,3.21,5.09,3.22,5,0-.22-7.49-.47-15.16,1.44-22.46a36.17,36.17,0,0,1,4.48-10.08,97.06,97.06,0,0,0,5.8-9.7,2.57,2.57,0,0,0-.9-3.42,2.52,2.52,0,0,0-3.42.89Z"/><path class="cls-4" d="M246.57,553.91a6.67,6.67,0,0,1-3.45-4.71,30.88,30.88,0,0,1-.39-4.45c0-1.5,0-2.91,0-4.35a2.48,2.48,0,0,0-.65-1.86.87.87,0,0,0-.77,0,6.17,6.17,0,0,0-1,.33c-1.64,1.12-3.23,2.32-4.92,3.4a22.79,22.79,0,0,1-5.6,2.64,4.28,4.28,0,0,1-4-1.06,4.94,4.94,0,0,1-1.51-4.26A21,21,0,0,1,227.9,530a23.51,23.51,0,0,1,6.42-6.65,2,2,0,0,1,1.64,0c.4.19.91.62.62,1.07-5.28,4-9.57,9.83-9.78,16.59a1.65,1.65,0,0,0,.61,1.26,2.45,2.45,0,0,0,2.41.28,37.8,37.8,0,0,0,6.92-4,22.8,22.8,0,0,1,3.91-2.26,3.83,3.83,0,0,1,3.48,1.23c.93,1.08.72,2.21,1,3.42a39.24,39.24,0,0,0,.61,8.94,3.69,3.69,0,0,0,2.91,2.45,4.57,4.57,0,0,0,3.3-.79,11.31,11.31,0,0,0,4.07-5.15,15.29,15.29,0,0,0,.74-4,26.94,26.94,0,0,0-1.46-9.15c0-.52.82-.4,1.21-.22,1.11.52,1.45,1.84,1.83,2.73,1.44,4.75,1.11,10.41-1.47,14.26a11.18,11.18,0,0,1-5.38,4.22A6.08,6.08,0,0,1,246.57,553.91Z"/><path class="cls-5" d="M316.11,547.09a5,5,0,0,1,.14,1.62c0,.34-.45.59-.75.59-.37-1.15-1-3.09-1.52-4.26-1-2.75-3.08-7.86-4.32-11.08A116,116,0,0,1,306,522.48c0-.21,0-.49,0-.69a.72.72,0,0,1,.42-.68,1.37,1.37,0,0,1,1,.62c2.43,8.12,5.47,16.14,8.42,23.9ZM326,524.47l4.09,12.19a13.3,13.3,0,0,1,.7,5.35c-.06.41-.61.83-.92.49a40.65,40.65,0,0,0-1.92-7.45c-.82-2.38-2.21-6.53-3.23-9.38a65.25,65.25,0,0,0-5.64,5.25,18.77,18.77,0,0,0-3.31,4.59,1.91,1.91,0,0,0-.32.69l-.17.69a1.19,1.19,0,0,1-.79.9,1.72,1.72,0,0,1-.65-1.41,8.59,8.59,0,0,1,1.27-2.91,38.3,38.3,0,0,1,3-3.66,63.8,63.8,0,0,1,6.09-5.7l-2.62-8.69V515a.88.88,0,0,1,.26-.57.76.76,0,0,1,1,.26c1.16,2.66,1.56,5.42,2.67,8.24a8.15,8.15,0,0,1,.67-.65.33.33,0,0,1,.54.16.77.77,0,0,1,.06.62,2.16,2.16,0,0,1-.38.81Z"/></g></svg>